<svg id="svg" version="1.1" width="400" height="400" viewBox="0 0 400 400" xmlns="http://www.w3.org/2000/svg" xmlns:xlink="http://www.w3.org/1999/xlink" ><g id="svgg"><path id="path0" d="M379.342 205.400 C 379.341 207.380,379.408 208.240,379.492 207.312 C 379.576 206.384,379.577 204.764,379.495 203.712 C 379.412 202.660,379.343 203.420,379.342 205.400 " stroke="none" fill="#000000" fill-rule="evenodd"></path><path id="path1" d="M379.328 196.400 C 379.328 197.830,379.401 198.415,379.489 197.700 C 379.578 196.985,379.578 195.815,379.489 195.100 C 379.401 194.385,379.328 194.970,379.328 196.400 " stroke="none" fill="#1c1c55" fill-rule="evenodd"></path><path id="path2" d="M379.334 177.200 C 379.334 178.850,379.405 179.525,379.491 178.700 C 379.578 177.875,379.578 176.525,379.491 175.700 C 379.405 174.875,379.334 175.550,379.334 177.200 M379.331 188.200 C 379.333 189.740,379.405 190.321,379.492 189.491 C 379.579 188.661,379.577 187.401,379.489 186.691 C 379.400 185.981,379.329 186.660,379.331 188.200 M378.901 210.200 C 378.905 211.080,378.987 211.393,379.083 210.895 C 379.179 210.398,379.175 209.678,379.075 209.295 C 378.975 208.913,378.896 209.320,378.901 210.200 M378.940 266.400 C 378.940 268.270,379.009 269.035,379.093 268.100 C 379.177 267.165,379.177 265.635,379.093 264.700 C 379.009 263.765,378.940 264.530,378.940 266.400 " stroke="none" fill="#2d2d69" fill-rule="evenodd"></path><path id="path3" d="M379.309 170.400 C 379.309 171.390,379.387 171.795,379.482 171.300 C 379.578 170.805,379.578 169.995,379.482 169.500 C 379.387 169.005,379.309 169.410,379.309 170.400 M379.309 184.000 C 379.309 184.990,379.387 185.395,379.482 184.900 C 379.578 184.405,379.578 183.595,379.482 183.100 C 379.387 182.605,379.309 183.010,379.309 184.000 M379.309 192.400 C 379.309 193.390,379.387 193.795,379.482 193.300 C 379.578 192.805,379.578 191.995,379.482 191.500 C 379.387 191.005,379.309 191.410,379.309 192.400 M378.969 241.200 C 378.969 245.710,379.027 247.555,379.098 245.300 C 379.170 243.045,379.170 239.355,379.098 237.100 C 379.027 234.845,378.969 236.690,378.969 241.200 " stroke="none" fill="#143b62" fill-rule="evenodd"></path><path id="path4" d="M126.600 1.563 C 126.160 1.753,125.260 2.591,124.600 3.425 C 123.940 4.259,123.216 5.135,122.991 5.371 C 122.767 5.607,122.170 6.340,121.666 7.000 C 121.162 7.660,120.319 8.740,119.794 9.400 C 119.268 10.060,117.654 12.130,116.207 14.000 C 114.759 15.870,113.322 17.703,113.014 18.074 C 112.705 18.444,112.130 19.254,111.736 19.874 C 111.342 20.493,110.806 21.135,110.544 21.300 C 110.283 21.466,109.210 22.816,108.159 24.300 C 107.108 25.785,106.143 27.090,106.014 27.200 C 105.885 27.310,105.159 28.210,104.400 29.200 C 103.641 30.190,102.926 31.090,102.809 31.200 C 102.693 31.310,101.788 32.480,100.799 33.799 C 99.810 35.119,98.595 36.647,98.100 37.195 C 97.605 37.743,97.200 38.353,97.200 38.550 C 97.200 38.747,96.750 39.325,96.200 39.835 C 95.650 40.345,95.200 40.950,95.200 41.181 C 95.200 41.411,95.065 41.601,94.900 41.603 C 94.735 41.604,94.174 42.230,93.654 42.994 C 93.134 43.758,92.354 44.792,91.920 45.292 C 91.486 45.791,90.742 46.705,90.266 47.322 C 89.790 47.939,89.130 48.781,88.800 49.193 C 88.470 49.604,87.570 50.767,86.800 51.777 C 86.030 52.786,84.908 54.194,84.306 54.906 C 83.705 55.618,83.210 56.425,83.206 56.700 C 83.203 56.975,83.033 57.200,82.828 57.200 C 82.624 57.200,81.202 58.865,79.669 60.900 C 78.136 62.935,76.506 65.050,76.048 65.600 C 75.078 66.765,75.138 66.686,72.800 69.801 C 71.810 71.119,70.595 72.647,70.100 73.195 C 69.605 73.743,69.200 74.320,69.200 74.478 C 69.200 74.635,68.795 75.178,68.300 75.685 C 67.805 76.192,66.950 77.211,66.400 77.950 C 65.850 78.689,64.944 79.857,64.387 80.547 C 63.830 81.236,62.850 82.520,62.208 83.400 C 61.567 84.280,60.942 85.090,60.820 85.200 C 60.698 85.310,59.788 86.480,58.799 87.799 C 57.810 89.119,56.595 90.647,56.100 91.195 C 55.605 91.743,55.200 92.419,55.200 92.696 C 55.200 92.973,55.037 93.200,54.838 93.200 C 54.639 93.200,53.518 94.505,52.348 96.100 C 51.178 97.695,50.121 99.090,50.000 99.200 C 49.879 99.310,49.159 100.210,48.400 101.200 C 47.641 102.190,46.926 103.090,46.809 103.200 C 46.693 103.310,45.788 104.480,44.799 105.799 C 43.810 107.119,42.595 108.647,42.100 109.195 C 41.605 109.743,41.200 110.419,41.200 110.696 C 41.200 110.973,41.037 111.200,40.838 111.200 C 40.639 111.200,39.518 112.505,38.348 114.100 C 37.178 115.695,36.121 117.090,36.000 117.200 C 35.879 117.310,35.154 118.209,34.390 119.199 C 32.395 121.780,31.933 122.357,30.686 123.825 C 28.990 125.823,28.508 128.530,28.269 137.400 C 28.151 141.800,27.968 145.940,27.863 146.600 C 27.759 147.260,27.540 153.611,27.377 160.713 C 27.215 167.815,26.950 173.707,26.790 173.806 C 26.629 173.906,26.466 177.263,26.427 181.267 C 26.388 185.271,26.294 188.649,26.217 188.773 C 25.866 189.344,25.628 194.346,25.405 205.800 C 25.272 212.620,24.997 218.920,24.794 219.800 C 24.591 220.680,24.337 224.730,24.229 228.800 C 24.122 232.870,23.929 237.820,23.800 239.800 C 23.671 241.780,23.377 248.620,23.147 255.000 C 22.917 261.380,22.592 269.750,22.425 273.600 C 22.258 277.450,21.915 285.550,21.663 291.600 C 21.411 297.650,21.120 304.490,21.016 306.800 C 20.912 309.110,20.658 314.780,20.452 319.400 C 20.246 324.020,19.986 328.610,19.876 329.600 C 19.765 330.590,19.549 335.922,19.396 341.448 L 19.117 351.496 20.459 352.509 C 21.299 353.144,22.547 353.606,23.800 353.745 C 28.921 354.317,33.018 354.960,33.200 355.221 C 33.310 355.379,34.210 355.610,35.200 355.736 C 40.016 356.345,43.970 357.030,44.237 357.300 C 44.400 357.465,45.303 357.600,46.243 357.600 C 47.183 357.600,48.051 357.758,48.170 357.952 C 48.290 358.146,49.920 358.432,51.793 358.588 C 53.665 358.744,55.298 359.035,55.422 359.236 C 55.546 359.436,56.436 359.600,57.400 359.600 C 58.364 359.600,59.254 359.764,59.378 359.964 C 59.502 360.165,61.132 360.456,63.001 360.612 C 64.871 360.767,66.400 361.036,66.400 361.209 C 66.400 361.381,67.255 361.625,68.300 361.750 C 74.859 362.533,77.600 362.981,77.600 363.270 C 77.600 363.452,78.380 363.600,79.333 363.600 C 80.287 363.600,81.200 363.735,81.364 363.900 C 81.527 364.065,83.222 364.416,85.131 364.679 C 87.039 364.943,89.590 365.358,90.800 365.602 C 92.010 365.846,94.440 366.272,96.200 366.550 C 97.960 366.827,99.670 367.165,100.000 367.302 C 100.330 367.438,101.320 367.643,102.200 367.757 C 103.080 367.871,105.420 368.254,107.400 368.609 C 109.380 368.963,111.810 369.350,112.800 369.469 C 113.790 369.588,114.780 369.829,115.000 370.003 C 115.220 370.177,116.840 370.450,118.600 370.608 C 120.360 370.766,121.980 371.034,122.200 371.203 C 122.420 371.372,123.320 371.615,124.200 371.744 C 131.148 372.761,133.077 373.080,133.600 373.297 C 133.930 373.433,134.830 373.645,135.600 373.767 C 136.370 373.889,138.530 374.228,140.400 374.521 C 142.270 374.814,144.070 375.165,144.400 375.302 C 144.730 375.438,145.720 375.644,146.600 375.760 C 151.678 376.427,155.178 377.037,155.437 377.300 C 155.600 377.465,156.503 377.600,157.443 377.600 C 158.383 377.600,159.252 377.761,159.374 377.958 C 159.496 378.155,161.082 378.445,162.898 378.602 C 164.714 378.760,166.380 379.028,166.600 379.199 C 167.018 379.524,167.854 379.670,173.800 380.458 C 175.780 380.720,177.490 381.064,177.600 381.221 C 177.710 381.379,178.610 381.610,179.600 381.736 C 184.416 382.345,188.370 383.030,188.637 383.300 C 188.800 383.465,189.703 383.600,190.643 383.600 C 191.583 383.600,192.452 383.761,192.574 383.958 C 192.696 384.155,194.282 384.445,196.098 384.602 C 197.914 384.760,199.580 385.028,199.800 385.199 C 200.208 385.517,200.671 385.599,207.069 386.489 C 209.088 386.770,210.873 387.135,211.036 387.300 C 211.200 387.465,212.113 387.600,213.067 387.600 C 214.020 387.600,214.800 387.759,214.800 387.953 C 214.800 388.147,216.375 388.435,218.300 388.593 C 220.225 388.751,221.980 389.022,222.200 389.195 C 222.617 389.524,223.444 389.668,229.400 390.458 C 231.380 390.720,233.090 391.064,233.200 391.221 C 233.310 391.379,234.210 391.613,235.200 391.741 C 238.768 392.204,243.812 393.059,244.400 393.302 C 244.730 393.438,245.720 393.646,246.600 393.765 C 250.327 394.268,255.043 395.072,255.600 395.300 C 255.930 395.435,256.920 395.655,257.800 395.788 C 258.680 395.922,260.930 396.260,262.800 396.540 C 264.670 396.819,266.470 397.160,266.800 397.297 C 267.130 397.433,268.030 397.639,268.800 397.753 C 273.359 398.428,275.418 398.858,275.766 399.206 C 276.286 399.726,281.600 399.721,281.600 399.200 C 281.600 398.980,281.870 398.800,282.200 398.800 C 282.530 398.800,282.800 398.654,282.800 398.475 C 282.800 398.297,283.115 397.801,283.500 397.374 C 283.885 396.947,285.010 395.518,286.000 394.198 C 286.990 392.879,288.025 391.562,288.300 391.271 C 288.575 390.981,288.800 390.610,288.800 390.447 C 288.800 390.284,289.115 389.801,289.500 389.374 C 289.885 388.947,291.010 387.518,292.000 386.198 C 292.990 384.879,294.025 383.562,294.300 383.271 C 294.575 382.981,294.800 382.621,294.800 382.471 C 294.801 382.322,295.206 381.719,295.700 381.130 C 296.195 380.542,297.050 379.488,297.600 378.788 C 298.150 378.089,298.825 377.278,299.100 376.987 C 299.375 376.695,299.600 376.264,299.600 376.029 C 299.600 375.793,299.741 375.600,299.914 375.600 C 300.086 375.600,300.568 375.015,300.984 374.300 C 301.399 373.585,301.855 372.910,301.997 372.800 C 302.138 372.690,303.051 371.520,304.027 370.200 C 305.002 368.880,306.205 367.352,306.700 366.804 C 307.195 366.256,307.600 365.581,307.600 365.304 C 307.600 365.027,307.765 364.800,307.967 364.800 C 308.169 364.800,308.698 364.215,309.141 363.500 C 309.584 362.785,310.275 361.840,310.676 361.400 C 311.076 360.960,312.663 358.890,314.201 356.800 C 315.740 354.710,317.134 352.940,317.299 352.867 C 317.465 352.793,317.600 352.493,317.600 352.200 C 317.600 351.907,317.736 351.607,317.903 351.533 C 318.070 351.460,318.832 350.590,319.597 349.600 C 320.362 348.610,321.217 347.561,321.497 347.269 C 321.776 346.977,322.198 346.377,322.434 345.937 C 322.669 345.497,323.110 344.836,323.412 344.468 C 323.715 344.101,325.043 342.360,326.365 340.600 C 327.687 338.840,328.910 337.220,329.084 337.000 C 329.258 336.780,330.201 335.520,331.181 334.200 C 332.161 332.880,333.197 331.561,333.484 331.269 C 333.770 330.977,334.198 330.377,334.434 329.937 C 334.897 329.071,335.792 327.911,336.900 326.740 C 337.285 326.333,337.600 325.897,337.600 325.771 C 337.600 325.646,337.825 325.306,338.100 325.016 C 338.375 324.726,338.904 324.064,339.276 323.544 C 342.164 319.507,345.571 315.027,347.300 312.990 C 347.905 312.277,348.400 311.573,348.400 311.424 C 348.400 311.189,350.626 308.159,351.209 307.600 C 351.671 307.157,358.800 297.602,358.800 297.426 C 358.800 297.322,359.205 296.795,359.700 296.256 C 360.897 294.953,361.321 294.404,362.223 292.990 C 362.640 292.335,363.076 291.710,363.191 291.600 C 364.074 290.755,366.800 287.177,366.800 286.862 C 366.800 286.644,366.935 286.407,367.100 286.333 C 367.265 286.260,369.290 283.682,371.600 280.605 C 373.910 277.528,375.937 274.828,376.105 274.605 C 376.272 274.382,376.947 273.500,377.605 272.645 C 379.060 270.751,378.851 275.591,379.043 239.400 C 379.729 109.811,379.720 42.956,379.018 41.884 C 377.996 40.324,376.390 39.688,372.692 39.376 C 370.882 39.224,369.220 38.964,369.000 38.800 C 368.780 38.636,367.700 38.388,366.600 38.250 C 363.659 37.881,356.955 36.885,354.200 36.408 C 352.880 36.179,350.090 35.795,348.000 35.554 C 345.910 35.312,343.840 34.964,343.400 34.780 C 342.590 34.441,342.147 34.371,335.000 33.460 C 332.800 33.180,330.730 32.838,330.400 32.700 C 330.070 32.563,329.080 32.354,328.200 32.236 C 323.751 31.640,317.939 30.774,315.800 30.390 C 314.480 30.152,311.600 29.731,309.400 29.454 C 307.200 29.177,305.130 28.838,304.800 28.700 C 304.470 28.563,303.480 28.361,302.600 28.251 C 299.828 27.905,292.284 26.782,290.200 26.404 C 289.100 26.205,286.220 25.755,283.800 25.404 C 281.380 25.054,278.410 24.593,277.200 24.380 C 275.990 24.167,273.290 23.757,271.200 23.468 C 269.110 23.179,267.130 22.835,266.800 22.702 C 266.470 22.569,265.300 22.353,264.200 22.221 C 259.339 21.641,254.552 20.929,254.000 20.704 C 253.670 20.570,252.500 20.353,251.400 20.221 C 246.539 19.641,241.752 18.929,241.200 18.704 C 240.870 18.570,239.700 18.353,238.600 18.221 C 233.670 17.632,228.950 16.927,228.400 16.698 C 228.070 16.560,226.990 16.352,226.000 16.234 C 221.008 15.644,216.135 14.926,215.600 14.702 C 214.964 14.436,214.161 14.320,207.800 13.580 C 205.600 13.324,203.440 12.963,203.000 12.778 C 202.560 12.593,201.390 12.347,200.400 12.232 C 195.632 11.675,190.539 10.929,190.000 10.707 C 189.670 10.571,188.500 10.353,187.400 10.221 C 182.470 9.632,177.750 8.927,177.200 8.698 C 176.870 8.560,175.790 8.358,174.800 8.250 C 169.209 7.635,164.975 7.014,164.800 6.782 C 164.690 6.637,163.520 6.394,162.200 6.244 C 156.281 5.568,152.438 4.977,152.164 4.700 C 152.000 4.535,151.008 4.400,149.959 4.400 C 148.910 4.400,147.579 4.220,147.001 4.000 C 146.423 3.781,144.425 3.484,142.562 3.340 C 140.698 3.197,139.078 2.927,138.963 2.740 C 138.847 2.553,137.942 2.400,136.950 2.400 C 135.959 2.400,134.844 2.241,134.474 2.046 C 133.483 1.525,127.531 1.160,126.600 1.563 M135.600 10.799 C 137.250 11.009,139.680 11.373,141.000 11.608 C 142.320 11.843,145.110 12.263,147.200 12.541 C 149.290 12.819,151.270 13.160,151.600 13.300 C 151.930 13.439,153.010 13.648,154.000 13.766 C 159.010 14.358,163.865 15.074,164.400 15.300 C 164.730 15.439,165.810 15.648,166.800 15.764 C 169.129 16.036,175.928 17.065,179.000 17.610 C 180.320 17.844,183.110 18.263,185.200 18.541 C 187.290 18.819,189.270 19.160,189.600 19.300 C 189.930 19.439,191.010 19.648,192.000 19.766 C 196.992 20.356,201.865 21.074,202.400 21.298 C 203.014 21.555,203.301 21.600,210.200 22.516 C 212.400 22.807,214.470 23.160,214.800 23.300 C 215.130 23.439,216.210 23.648,217.200 23.766 C 222.192 24.356,227.065 25.074,227.600 25.298 C 227.930 25.436,228.920 25.637,229.800 25.744 C 232.631 26.090,240.133 27.212,242.400 27.630 C 243.610 27.853,246.310 28.263,248.400 28.541 C 250.490 28.819,252.470 29.160,252.800 29.300 C 253.130 29.439,254.210 29.648,255.200 29.766 C 262.185 30.591,265.179 31.040,265.436 31.300 C 265.600 31.465,266.573 31.600,267.600 31.600 C 268.627 31.600,269.600 31.735,269.764 31.900 C 269.927 32.065,271.892 32.430,274.130 32.711 C 276.369 32.992,279.010 33.326,280.000 33.454 C 280.990 33.581,281.980 33.827,282.200 33.999 C 282.420 34.171,284.310 34.441,286.400 34.600 C 288.490 34.759,290.380 35.030,290.600 35.203 C 290.820 35.376,291.900 35.620,293.000 35.745 C 299.382 36.471,303.175 37.036,303.436 37.300 C 303.600 37.465,304.593 37.600,305.643 37.600 C 306.693 37.600,307.652 37.760,307.773 37.957 C 307.894 38.153,309.795 38.442,311.997 38.600 C 314.199 38.757,316.000 39.047,316.000 39.243 C 316.000 39.439,316.889 39.600,317.976 39.600 C 319.063 39.600,320.052 39.760,320.173 39.957 C 320.294 40.153,322.196 40.442,324.400 40.600 C 326.604 40.758,328.506 41.047,328.627 41.243 C 328.748 41.440,329.726 41.600,330.800 41.600 C 331.874 41.600,332.851 41.758,332.970 41.952 C 333.090 42.146,334.946 42.434,337.094 42.593 C 339.242 42.752,341.180 43.024,341.400 43.198 C 341.620 43.372,342.610 43.618,343.600 43.745 C 344.590 43.873,347.290 44.216,349.600 44.509 C 351.910 44.801,354.070 45.155,354.400 45.295 C 355.043 45.567,355.936 45.703,362.283 46.492 C 366.833 47.058,367.578 47.435,366.494 48.622 C 366.103 49.050,364.261 51.380,362.400 53.800 C 360.539 56.220,358.698 58.549,358.308 58.975 C 357.919 59.402,357.600 59.869,357.600 60.014 C 357.600 60.159,357.229 60.710,356.776 61.239 C 356.322 61.767,355.644 62.560,355.269 63.000 C 354.894 63.440,354.050 64.516,353.393 65.392 C 352.737 66.268,351.896 67.348,351.526 67.792 C 351.155 68.236,349.132 70.850,347.031 73.600 C 341.927 80.280,341.468 80.870,340.986 81.370 C 340.758 81.607,340.039 82.520,339.388 83.400 C 338.737 84.280,338.106 85.090,337.986 85.200 C 337.866 85.310,336.248 87.380,334.392 89.800 C 332.536 92.220,330.698 94.549,330.308 94.975 C 329.919 95.402,329.600 95.869,329.600 96.014 C 329.600 96.159,329.229 96.710,328.776 97.239 C 328.322 97.767,327.644 98.560,327.269 99.000 C 326.894 99.440,326.051 100.520,325.396 101.400 C 324.741 102.280,324.106 103.090,323.986 103.200 C 323.866 103.310,322.249 105.380,320.394 107.800 C 318.539 110.220,316.790 112.439,316.508 112.731 C 316.226 113.023,315.787 113.650,315.534 114.124 C 315.280 114.597,314.652 115.316,314.136 115.721 C 313.621 116.127,313.200 116.715,313.200 117.029 C 313.200 117.343,313.065 117.600,312.900 117.601 C 312.735 117.601,312.060 118.407,311.400 119.392 C 310.740 120.377,310.080 121.186,309.933 121.191 C 309.786 121.196,309.302 121.785,308.859 122.500 C 308.416 123.215,307.726 124.161,307.327 124.602 C 306.927 125.042,305.790 126.482,304.800 127.800 C 303.810 129.118,302.687 130.544,302.305 130.969 C 301.922 131.394,301.505 132.069,301.378 132.471 C 301.250 132.872,300.980 133.200,300.778 133.200 C 300.575 133.200,299.591 134.325,298.590 135.700 C 297.590 137.075,296.337 138.740,295.805 139.400 C 295.273 140.060,293.654 142.130,292.207 144.000 C 290.759 145.870,289.322 147.703,289.014 148.074 C 288.705 148.444,288.130 149.254,287.736 149.874 C 287.342 150.493,286.806 151.135,286.544 151.300 C 286.283 151.466,285.210 152.816,284.159 154.300 C 283.108 155.785,282.143 157.090,282.014 157.200 C 281.885 157.310,281.156 158.210,280.393 159.200 C 279.631 160.190,278.846 161.182,278.649 161.404 C 278.286 161.812,270.860 161.239,269.600 160.705 C 269.270 160.565,268.280 160.365,267.400 160.260 C 266.520 160.155,265.170 159.963,264.400 159.834 C 263.630 159.705,261.650 159.413,260.000 159.185 C 258.350 158.957,256.010 158.595,254.800 158.382 C 253.590 158.168,250.860 157.769,248.732 157.496 C 246.605 157.223,244.730 156.865,244.566 156.700 C 244.401 156.535,243.407 156.400,242.357 156.400 C 241.307 156.400,240.359 156.258,240.252 156.084 C 240.144 155.910,239.439 155.726,238.684 155.675 C 237.158 155.572,232.964 154.975,229.600 154.381 C 228.390 154.168,225.690 153.757,223.600 153.468 C 221.510 153.179,219.530 152.832,219.200 152.697 C 218.589 152.446,218.263 152.399,211.600 151.606 C 209.510 151.357,207.487 150.984,207.105 150.777 C 206.723 150.569,205.700 150.400,204.831 150.400 C 203.963 150.400,202.801 150.228,202.249 150.019 C 201.698 149.809,199.841 149.526,198.123 149.389 C 196.406 149.252,194.640 148.984,194.200 148.793 C 193.760 148.602,192.680 148.357,191.800 148.248 C 189.204 147.929,181.577 146.798,179.200 146.380 C 177.990 146.167,175.290 145.757,173.200 145.468 C 171.110 145.179,169.130 144.832,168.800 144.697 C 168.470 144.562,167.480 144.362,166.600 144.255 C 165.720 144.147,163.290 143.852,161.200 143.599 C 159.110 143.346,157.040 142.983,156.600 142.791 C 156.160 142.599,154.990 142.347,154.000 142.232 C 149.181 141.669,144.138 140.928,143.600 140.702 C 142.986 140.445,142.699 140.400,135.800 139.484 C 133.600 139.193,131.530 138.843,131.200 138.707 C 130.870 138.571,129.700 138.353,128.600 138.221 C 123.688 137.634,118.951 136.928,118.400 136.699 C 117.742 136.427,116.190 136.200,110.300 135.515 C 108.155 135.266,106.400 134.913,106.400 134.731 C 106.400 134.549,105.421 134.400,104.224 134.400 C 103.027 134.400,101.945 134.234,101.820 134.032 C 101.694 133.829,99.794 133.536,97.596 133.380 C 95.398 133.224,93.600 132.957,93.600 132.785 C 93.600 132.614,92.655 132.385,91.500 132.276 C 89.547 132.092,83.966 131.263,78.800 130.390 C 77.590 130.186,74.890 129.780,72.800 129.488 C 70.710 129.197,68.730 128.846,68.400 128.709 C 68.070 128.572,66.900 128.355,65.800 128.226 C 61.752 127.751,56.583 126.945,56.000 126.698 C 55.670 126.558,54.500 126.350,53.400 126.235 C 48.542 125.725,43.639 124.976,43.365 124.700 C 43.201 124.535,42.557 124.400,41.933 124.400 C 40.565 124.400,40.527 124.125,41.700 122.732 C 42.195 122.145,42.960 121.167,43.400 120.559 C 43.840 119.951,44.695 118.906,45.300 118.238 C 45.905 117.569,46.400 116.901,46.400 116.753 C 46.400 116.605,46.895 115.930,47.500 115.253 C 48.105 114.576,49.230 113.192,50.000 112.178 C 50.770 111.164,51.892 109.764,52.494 109.067 C 53.095 108.370,53.590 107.678,53.594 107.528 C 53.597 107.379,54.230 106.589,55.000 105.773 C 55.770 104.956,56.400 104.161,56.400 104.005 C 56.400 103.850,56.771 103.290,57.224 102.761 C 57.678 102.233,58.356 101.440,58.731 101.000 C 59.106 100.560,59.949 99.480,60.604 98.600 C 61.259 97.720,61.891 96.910,62.008 96.800 C 62.125 96.690,62.841 95.790,63.600 94.800 C 64.359 93.810,65.074 92.910,65.191 92.800 C 65.307 92.690,66.212 91.520,67.201 90.200 C 68.190 88.880,69.222 87.565,69.494 87.277 C 69.766 86.990,70.841 85.640,71.884 84.277 C 72.927 82.915,74.099 81.451,74.490 81.025 C 74.880 80.598,75.200 80.116,75.200 79.953 C 75.200 79.790,75.515 79.342,75.900 78.957 C 76.628 78.229,78.026 76.476,79.400 74.569 C 79.840 73.958,80.740 72.804,81.400 72.005 C 82.060 71.206,83.140 69.860,83.800 69.014 C 86.075 66.096,87.001 65.000,87.300 64.867 C 87.465 64.793,87.600 64.493,87.600 64.200 C 87.600 63.907,87.736 63.607,87.903 63.533 C 88.070 63.460,88.833 62.590,89.599 61.600 C 90.366 60.610,91.309 59.451,91.696 59.025 C 92.083 58.598,92.400 58.110,92.400 57.940 C 92.400 57.770,92.743 57.309,93.163 56.916 C 93.583 56.522,94.748 55.120,95.752 53.800 C 96.756 52.480,97.808 51.137,98.089 50.815 C 98.370 50.493,99.093 49.553,99.695 48.726 C 101.029 46.893,101.808 45.922,103.500 43.989 C 104.215 43.172,104.800 42.366,104.800 42.198 C 104.800 42.031,105.117 41.603,105.503 41.247 C 105.890 40.891,107.015 39.520,108.003 38.201 C 108.992 36.881,110.205 35.353,110.700 34.805 C 111.195 34.257,111.600 33.678,111.600 33.518 C 111.600 33.358,112.095 32.704,112.700 32.064 C 113.305 31.424,114.430 30.063,115.200 29.040 C 115.970 28.016,117.095 26.624,117.700 25.947 C 118.305 25.270,118.800 24.588,118.800 24.433 C 118.800 24.278,119.122 23.802,119.517 23.375 C 119.911 22.949,121.036 21.520,122.017 20.200 C 122.997 18.880,124.028 17.559,124.306 17.265 C 124.584 16.971,125.303 16.071,125.904 15.265 C 126.504 14.459,127.091 13.710,127.208 13.600 C 127.325 13.490,128.020 12.630,128.752 11.690 C 129.934 10.171,130.225 10.004,131.342 10.198 C 132.034 10.319,133.950 10.589,135.600 10.799 M371.200 162.100 L 371.199 267.800 370.207 269.000 C 368.810 270.691,368.714 270.814,367.390 272.600 C 366.738 273.480,366.109 274.290,365.993 274.400 C 365.877 274.510,365.440 275.135,365.023 275.790 C 364.606 276.444,364.116 277.164,363.935 277.390 C 363.649 277.745,361.755 280.132,360.275 282.000 C 360.014 282.330,359.454 283.136,359.032 283.790 C 358.610 284.444,358.116 285.164,357.935 285.390 C 357.649 285.745,355.755 288.132,354.275 290.000 C 354.014 290.330,353.454 291.136,353.032 291.790 C 352.610 292.444,352.116 293.164,351.935 293.390 C 351.649 293.745,349.755 296.132,348.275 298.000 C 348.014 298.330,347.454 299.136,347.032 299.790 C 346.610 300.444,346.116 301.164,345.935 301.390 C 345.649 301.745,343.755 304.132,342.275 306.000 C 342.014 306.330,341.454 307.136,341.032 307.790 C 340.610 308.444,340.116 309.164,339.935 309.390 C 339.649 309.745,337.755 312.132,336.275 314.000 C 336.014 314.330,335.454 315.136,335.032 315.790 C 334.610 316.444,334.116 317.164,333.935 317.390 C 333.649 317.745,331.755 320.132,330.275 322.000 C 330.014 322.330,329.454 323.136,329.032 323.790 C 328.610 324.444,328.116 325.164,327.935 325.390 C 327.649 325.745,325.755 328.132,324.275 330.000 C 324.014 330.330,323.454 331.136,323.032 331.790 C 322.610 332.444,322.116 333.164,321.935 333.390 C 321.649 333.745,319.755 336.132,318.275 338.000 C 318.014 338.330,317.454 339.136,317.032 339.790 C 316.610 340.444,316.116 341.164,315.935 341.390 C 315.649 341.745,313.755 344.132,312.275 346.000 C 312.014 346.330,311.454 347.136,311.032 347.790 C 310.610 348.444,310.116 349.164,309.935 349.390 C 309.649 349.745,307.755 352.132,306.275 354.000 C 306.014 354.330,305.454 355.136,305.032 355.790 C 304.610 356.444,304.116 357.164,303.935 357.390 C 303.649 357.745,301.755 360.132,300.275 362.000 C 300.014 362.330,299.454 363.136,299.032 363.790 C 298.610 364.444,298.116 365.164,297.935 365.390 C 297.649 365.745,295.755 368.132,294.275 370.000 C 294.014 370.330,293.454 371.136,293.032 371.790 C 292.610 372.444,292.116 373.164,291.935 373.390 C 291.649 373.745,289.755 376.132,288.275 378.000 C 288.014 378.330,287.454 379.136,287.032 379.790 C 286.610 380.444,286.115 381.164,285.932 381.390 C 283.208 384.759,282.400 385.835,282.400 386.093 C 282.400 386.262,282.220 386.400,282.000 386.400 C 281.734 386.400,281.600 350.156,281.600 278.467 L 281.600 170.533 282.936 169.167 C 283.670 168.415,285.065 166.724,286.036 165.408 C 287.006 164.092,288.104 162.652,288.476 162.208 C 288.847 161.764,289.477 161.010,289.876 160.532 C 290.274 160.055,290.960 159.163,291.400 158.550 C 291.840 157.937,292.470 157.154,292.800 156.811 C 293.130 156.468,293.735 155.671,294.143 155.041 C 294.552 154.411,295.325 153.404,295.860 152.803 C 296.396 152.202,297.900 150.291,299.203 148.555 C 300.506 146.820,301.803 145.138,302.086 144.819 C 302.816 143.993,304.460 141.876,305.400 140.553 C 305.840 139.933,306.785 138.769,307.500 137.965 C 308.215 137.161,308.800 136.382,308.800 136.235 C 308.800 136.087,309.172 135.569,309.626 135.083 C 310.080 134.597,311.205 133.210,312.126 132.001 C 313.047 130.791,314.205 129.353,314.700 128.805 C 315.195 128.257,315.600 127.663,315.600 127.485 C 315.600 127.307,316.021 126.765,316.535 126.281 C 317.050 125.796,317.812 124.860,318.228 124.200 C 318.645 123.540,319.304 122.765,319.693 122.477 C 320.082 122.190,320.400 121.704,320.400 121.397 C 320.400 121.091,320.626 120.696,320.902 120.520 C 321.179 120.344,321.934 119.480,322.581 118.600 C 323.228 117.720,323.869 116.910,324.006 116.800 C 324.142 116.690,325.050 115.520,326.024 114.200 C 326.999 112.880,327.891 111.710,328.008 111.600 C 328.125 111.490,328.844 110.590,329.607 109.600 C 330.369 108.610,331.309 107.451,331.696 107.025 C 332.083 106.598,332.400 106.130,332.400 105.984 C 332.400 105.838,332.946 105.107,333.614 104.359 C 336.038 101.644,336.302 101.321,337.035 100.170 C 337.446 99.527,337.880 98.910,338.001 98.800 C 338.122 98.690,338.845 97.790,339.607 96.800 C 340.370 95.810,341.130 94.940,341.297 94.867 C 341.464 94.793,341.600 94.493,341.600 94.200 C 341.600 93.907,341.736 93.607,341.903 93.533 C 342.070 93.460,342.833 92.590,343.599 91.600 C 344.365 90.610,345.399 89.352,345.896 88.804 C 346.393 88.256,346.800 87.581,346.800 87.304 C 346.800 87.027,346.963 86.800,347.162 86.800 C 347.361 86.800,348.486 85.495,349.662 83.901 C 350.838 82.306,352.104 80.641,352.476 80.201 C 354.185 78.175,354.653 77.591,355.400 76.550 C 355.840 75.937,356.470 75.154,356.800 74.811 C 357.130 74.468,357.735 73.671,358.143 73.041 C 358.552 72.411,359.325 71.404,359.860 70.803 C 360.396 70.202,361.906 68.291,363.216 66.555 C 364.526 64.820,366.184 62.706,366.899 61.857 C 367.615 61.008,368.368 60.018,368.574 59.657 C 368.780 59.296,369.186 58.761,369.477 58.469 C 369.767 58.177,370.190 57.592,370.417 57.169 C 370.643 56.746,370.912 56.400,371.014 56.400 C 371.116 56.400,371.200 103.965,371.200 162.100 " stroke="none" fill="#444d78" fill-rule="evenodd"></path></g></svg>